<?xml version="1.0" encoding="UTF-8" standalone="no"?>
<svg
   xmlns:dc="http://purl.org/dc/elements/1.1/"
   xmlns:cc="http://creativecommons.org/ns#"
   xmlns:rdf="http://www.w3.org/1999/02/22-rdf-syntax-ns#"
   xmlns:svg="http://www.w3.org/2000/svg"
   xmlns="http://www.w3.org/2000/svg"
   xmlns:sodipodi="http://sodipodi.sourceforge.net/DTD/sodipodi-0.dtd"
   xmlns:inkscape="http://www.inkscape.org/namespaces/inkscape"
   sodipodi:docname="Box.svg"
   inkscape:version="1.0 (4035a4fb49, 2020-05-01)"
   id="svg8"
   version="1.1"
   viewBox="0 0 210 297"
   height="297mm"
   width="210mm">
  <defs
     id="defs2">
    <marker
       id="DistanceX"
       orient="auto"
       refX="0.0"
       refY="0.0"
       style="overflow:visible">
      <path
         d="M 3,-3 L -3,3 M 0,-5 L  0,5"
         style="stroke:#000000; stroke-width:0.5"
         id="path10" />
    </marker>
    <pattern
       id="Hatch"
       patternUnits="userSpaceOnUse"
       width="8"
       height="8"
       x="0"
       y="0">
      <path
         d="M8 4 l-4,4"
         stroke="#000000"
         stroke-width="0.25"
         linecap="square"
         id="path13" />
      <path
         d="M6 2 l-4,4"
         stroke="#000000"
         stroke-width="0.25"
         linecap="square"
         id="path15" />
      <path
         d="M4 0 l-4,4"
         stroke="#000000"
         stroke-width="0.25"
         linecap="square"
         id="path17" />
    </pattern>
    <symbol
       id="*MODEL_SPACE" />
    <symbol
       id="*PAPER_SPACE" />
    <marker
       id="DistanceX-0"
       orient="auto"
       refX="0.0"
       refY="0.0"
       style="overflow:visible">
      <path
         d="M 3,-3 L -3,3 M 0,-5 L  0,5"
         style="stroke:#000000; stroke-width:0.5"
         id="path46" />
    </marker>
    <pattern
       id="Hatch-7"
       patternUnits="userSpaceOnUse"
       width="8"
       height="8"
       x="0"
       y="0">
      <path
         d="M8 4 l-4,4"
         stroke="#000000"
         stroke-width="0.25"
         linecap="square"
         id="path49" />
      <path
         d="M6 2 l-4,4"
         stroke="#000000"
         stroke-width="0.25"
         linecap="square"
         id="path51" />
      <path
         d="M4 0 l-4,4"
         stroke="#000000"
         stroke-width="0.25"
         linecap="square"
         id="path53" />
    </pattern>
    <symbol
       id="*MODEL_SPACE-8" />
    <symbol
       id="*PAPER_SPACE-1" />
    <marker
       id="DistanceX-7"
       orient="auto"
       refX="0.0"
       refY="0.0"
       style="overflow:visible">
      <path
         d="M 3,-3 L -3,3 M 0,-5 L  0,5"
         style="stroke:#000000; stroke-width:0.5"
         id="path82" />
    </marker>
    <pattern
       id="Hatch-8"
       patternUnits="userSpaceOnUse"
       width="8"
       height="8"
       x="0"
       y="0">
      <path
         d="M8 4 l-4,4"
         stroke="#000000"
         stroke-width="0.25"
         linecap="square"
         id="path85" />
      <path
         d="M6 2 l-4,4"
         stroke="#000000"
         stroke-width="0.25"
         linecap="square"
         id="path87" />
      <path
         d="M4 0 l-4,4"
         stroke="#000000"
         stroke-width="0.25"
         linecap="square"
         id="path89" />
    </pattern>
    <symbol
       id="*MODEL_SPACE-5" />
    <symbol
       id="*PAPER_SPACE-2" />
  </defs>
  <sodipodi:namedview
     inkscape:window-maximized="1"
     inkscape:window-y="-9"
     inkscape:window-x="-9"
     inkscape:window-height="1001"
     inkscape:window-width="1920"
     inkscape:snap-global="false"
     showgrid="false"
     inkscape:document-rotation="0"
     inkscape:current-layer="layer1"
     inkscape:document-units="mm"
     inkscape:cy="561.55844"
     inkscape:cx="400"
     inkscape:zoom="0.5"
     inkscape:pageshadow="2"
     inkscape:pageopacity="0.0"
     borderopacity="1.0"
     bordercolor="#666666"
     pagecolor="#ffffff"
     id="base" />
  <metadata
     id="metadata5">
    <rdf:RDF>
      <cc:Work
         rdf:about="">
        <dc:format>image/svg+xml</dc:format>
        <dc:type
           rdf:resource="http://purl.org/dc/dcmitype/StillImage" />
        <dc:title></dc:title>
      </cc:Work>
    </rdf:RDF>
  </metadata>
  <g
     id="layer1"
     inkscape:groupmode="layer"
     inkscape:label="Layer 1">
    <path
       id="path24"
       style="fill:none;stroke:#000000;stroke-width:0.264583"
       d="m 105.13229,31.798962 h -3 v 26.666669 h 3 V 85.132292 H 85.132295 v -3 H 65.132293 v 3 H 45.132292 v -3 h -20 v 3 H 5.1322915 V 58.465631 h 3 V 31.798962 h -3 V 5.1322915 H 25.132292 v 3 h 20 v -3 h 20.000001 v 3 h 20.000002 v -3 h 19.999995 z" />
    <path
       id="path60"
       style="fill:none;stroke:#000000;stroke-width:0.264583"
       d="m 113.13229,170.13229 v -26.66667 h -3 v -26.66667 h 3 V 90.132291 h 17 v 3 h 20 v -3 h 17 v 26.666659 h 3 v 26.66667 h -3 v 26.66667 h -17 v -3 h -20 v 3 z" />
    <path
       id="path96"
       style="fill:none;stroke:#000000;stroke-width:0.264583"
       d="m 90.132281,272.1323 h -17.00001 v -17 h -2.99998 v -20 h 2.99998 v -20 h -2.99998 v -20 h 2.99998 v -17.00001 h 17.00001 v -3 h 20.000009 v 3 h 16.99998 v 17.00001 h 3.00001 v 20 h -3.00001 v 20 h 3.00001 v 20 h -3.00001 v 17 h -16.99998 v 3 H 90.132281 Z" />
    <path
       d="m 105.1323,116.79896 h -3.00001 v 26.66667 h 3.00001 v 26.66666 H 85.132296 v -3 H 65.132293 v 3 H 45.132291 v -3 H 25.132292 v 3 H 5.1322915 v -26.66666 h 3 v -26.66667 h -3 V 90.132291 H 25.132292 v 3 h 19.999999 v -3 h 20.000002 v 3 h 20.000003 v -3 H 105.1323 Z"
       style="fill:none;stroke:#000000;stroke-width:0.264583"
       id="path24-9" />
    <path
       d="M 167.13228,5.1322915 V 31.798961 h 3.00001 v 26.66667 h -3.00001 v 26.66666 h -17 v -3 h -19.99999 v 3 h -17 v -26.66666 h -3 v -26.66667 h 3 V 5.1322915 h 17 v 3 h 19.99999 v -3 z"
       style="fill:none;stroke:#000000;stroke-width:0.264583"
       id="path60-0" />
    <path
       d="M 25.756782,272.13229 H 8.7567715 v -17 h -2.99998 v -20 h 2.99998 v -20 h -2.99998 v -20 h 2.99998 v -17 H 25.756782 v -3 h 20.00001 v 3 h 16.99998 v 17 h 3.00001 v 20 h -3.00001 v 20 h 3.00001 v 20 h -3.00001 v 17 h -16.99998 v 3.00001 h -20.00001 z"
       style="fill:none;stroke:#000000;stroke-width:0.264583"
       id="path96-6" />
  </g>
</svg>
